<svg xmlns="http://www.w3.org/2000/svg" width="16" height="17" viewBox="0 0 16 17" fill="none">
<path d="M5.25222 6.70444C5.11216 6.57105 4.92549 6.4977 4.73208 6.50006C4.53866 6.50241 4.35384 6.58029 4.21707 6.71707C4.08029 6.85384 4.00241 7.03866 4.00006 7.23208C3.9977 7.42549 4.07105 7.61216 4.20444 7.75222L7.38444 10.9322C7.48165 11.0295 7.59709 11.1068 7.72416 11.1594C7.85123 11.2121 7.98744 11.2392 8.125 11.2392C8.26256 11.2392 8.39877 11.2121 8.52584 11.1594C8.65291 11.1068 8.76835 11.0295 8.86556 10.9322L12.0444 7.75222C12.1778 7.61216 12.2512 7.42549 12.2488 7.23208C12.2465 7.03866 12.1686 6.85384 12.0318 6.71707C11.8951 6.58029 11.7102 6.50241 11.5168 6.50006C11.3234 6.4977 11.1367 6.57105 10.9967 6.70444L8.12444 9.57444L5.25222 6.70444Z" fill="#92A29F"/>
</svg>