<svg xmlns="http://www.w3.org/2000/svg" width="33" height="32" viewBox="0 0 33 32" fill="none">
<path d="M23.6111 19.9889L22.0444 21.5556L18.0556 17.5667L14.0667 21.5556L12.5 19.9889L16.4889 16L12.5 12.0111L14.0667 10.4444L18.0556 14.4333L22.0444 10.4444L23.6111 12.0111L19.6222 16L23.6111 19.9889ZM26.9444 6C27.5338 6 28.099 6.23413 28.5158 6.65087C28.9325 7.06762 29.1667 7.63285 29.1667 8.22222V23.7778C29.1667 24.3671 28.9325 24.9324 28.5158 25.3491C28.099 25.7659 27.5338 26 26.9444 26H10.2778C9.51111 26 8.91111 25.6 8.51111 25.0111L2.5 16L8.51111 6.97778C8.91111 6.38889 9.51111 6 10.2778 6H26.9444ZM26.9444 8.22222H10.2778L5.03333 16L10.2778 23.7778H26.9444V8.22222Z" fill="#2C3137"/>
</svg>