<svg xmlns="http://www.w3.org/2000/svg" width="24" height="20" viewBox="0 0 24 20" fill="none">
<g clip-path="url(#clip0_2367_3169)">
<path d="M23.303 6.33586C23.303 8.05063 22.6562 9.60337 21.5996 10.7477L21.5759 10.7713L21.4844 10.8692L21.4607 10.8928L12.9504 19.8177C12.7133 20.0641 12.3171 20.0641 12.0834 19.8177L3.57306 10.8894L3.49517 10.8084C3.81012 10.1772 3.99976 9.2557 4.36889 8.88776C4.95476 8.30717 6.93589 8.16878 6.93589 7.27764C6.93589 6.3865 4.95476 6.25148 4.36889 5.66751C3.78302 5.08354 3.64418 3.10886 2.75352 3.10886C2.6824 3.10886 2.61467 3.12236 2.55371 3.14599C2.81109 2.68354 3.12265 2.25823 3.48501 1.87679L3.52903 1.82954C4.61611 0.698734 6.11635 0 7.77914 0C9.70269 0 11.4163 0.941772 12.5237 2.41013C13.6243 0.941772 15.3413 0 17.2648 0C18.9344 0 20.4448 0.708861 21.5386 1.85654C22.6325 3.00422 23.3098 4.58734 23.3098 6.33924L23.303 6.33586Z" fill="#039AFF"/>
<path d="M5.5026 7.27653C5.5026 7.8605 4.19879 7.95164 3.81272 8.33645C3.42666 8.72126 3.33861 10.0208 2.74935 10.0208C2.16009 10.0208 2.07204 8.72126 1.68598 8.33645C1.29991 7.95164 -0.00390625 7.86387 -0.00390625 7.27653C-0.00390625 6.68919 1.29991 6.60142 1.68598 6.21661C2.07204 5.8318 2.16009 4.53223 2.74935 4.53223C3.33861 4.53223 3.42666 5.8318 3.81272 6.21661C4.19879 6.60142 5.5026 6.68919 5.5026 7.27653Z" fill="#FE6C02"/>
</g>
<defs>
<clipPath id="clip0_2367_3169">
<rect width="23.3028" height="20" fill="white"/>
</clipPath>
</defs>
</svg>