<svg width="20" height="20" viewBox="0 0 20 20" fill="none" xmlns="http://www.w3.org/2000/svg">
<g id="check">
<path id="Vector" fill-rule="evenodd" clip-rule="evenodd" d="M10 18.75C14.8325 18.75 18.75 14.8325 18.75 10C18.75 5.16751 14.8325 1.25 10 1.25C5.16751 1.25 1.25 5.16751 1.25 10C1.25 14.8325 5.16751 18.75 10 18.75ZM14.7295 8.03626C15.1073 7.60886 15.0869 6.93757 14.684 6.5369C14.281 6.13621 13.6482 6.15788 13.2705 6.58526L8.93651 11.489L6.66438 9.34663C6.25159 8.95741 5.61951 8.99685 5.2526 9.43471C4.88569 9.87257 4.92286 10.5431 5.33565 10.9323L7.8504 13.3034C8.52551 13.94 9.55579 13.8903 10.1736 13.1913L14.7295 8.03626Z" fill="#0D9013"/>
</g>
</svg>

