<svg xmlns="http://www.w3.org/2000/svg" width="12" height="12" viewBox="0 0 12 12" fill="none">
  <path d="M5.20333 9.89428C5.0888 9.89382 4.97576 9.86834 4.8721 9.81962C4.76845 9.77091 4.6767 9.70013 4.60326 9.61225L2.42502 6.99596C2.36037 6.91922 2.3119 6.83019 2.28255 6.73423C2.25319 6.63827 2.24355 6.53737 2.2542 6.43759C2.26485 6.33781 2.29558 6.24121 2.34453 6.15361C2.39347 6.06601 2.45964 5.98921 2.53903 5.92785C2.70052 5.80204 2.90445 5.74364 3.10805 5.7649C3.31166 5.78615 3.49913 5.88541 3.63115 6.04186L5.13732 7.84205L9.22377 1.8414C9.3395 1.6727 9.51644 1.55577 9.717 1.51543C9.91756 1.4751 10.1259 1.51454 10.2979 1.62538C10.3856 1.67829 10.4614 1.74873 10.5206 1.83229C10.5798 1.91586 10.6211 2.01074 10.6419 2.111C10.6628 2.21126 10.6627 2.31475 10.6417 2.41498C10.6207 2.51521 10.5792 2.61002 10.5199 2.69349L5.8514 9.55224C5.78435 9.6515 5.69535 9.73398 5.59128 9.79329C5.48722 9.85261 5.3709 9.88716 5.25133 9.89428H5.20333Z" fill="white"/>
</svg>