<svg xmlns="http://www.w3.org/2000/svg" width="16" height="16" viewBox="0 0 16 16" fill="">
<path d="M5.95933 5.49734C5.82593 5.35727 5.75258 5.1706 5.75494 4.97719C5.7573 4.78378 5.83518 4.59896 5.97195 4.46218C6.10872 4.32541 6.29355 4.24753 6.48696 4.24517C6.68037 4.24281 6.86704 4.31616 7.00711 4.44956L10.1871 7.62956C10.2844 7.72677 10.3616 7.84221 10.4143 7.96928C10.467 8.09635 10.4941 8.23256 10.4941 8.37012C10.4941 8.50768 10.467 8.64388 10.4143 8.77095C10.3616 8.89802 10.2844 9.01346 10.1871 9.11067L7.00711 12.2896C6.86704 12.423 6.68037 12.4963 6.48696 12.494C6.29355 12.4916 6.10872 12.4137 5.97195 12.2769C5.83518 12.1402 5.7573 11.9553 5.75494 11.7619C5.75258 11.5685 5.82593 11.3819 5.95933 11.2418L8.82933 8.36956L5.95933 5.49734Z"/>
</svg>