<svg width="101" height="100" viewBox="0 0 101 100" fill="none" xmlns="http://www.w3.org/2000/svg">
<path d="M51.4445 97.4074C25.2001 97.4074 4.03711 76.1292 4.03711 50C4.03711 23.9058 25.1841 2.59259 51.4445 2.59259C62.5852 2.59259 72.8297 6.43704 80.9186 12.8741C92.1217 21.7561 98.8519 35.3165 98.8519 50C98.8519 76.2631 77.5533 97.4074 51.4445 97.4074ZM90.5966 91.413C89.4564 90.8966 88.1064 91.4177 87.59 92.5578C87.0736 93.698 87.5793 95.0411 88.7195 95.5576C89.8597 96.0739 91.2182 95.5751 91.7346 94.435C92.251 93.2948 91.7368 91.9293 90.5966 91.413ZM95.0569 88.0626C94.3312 87.7339 93.4719 88.0656 93.1432 88.7913C92.8146 89.5169 93.1365 90.3718 93.8622 90.7005C94.5878 91.0292 95.4525 90.7117 95.7812 89.986C96.1098 89.2604 95.7826 88.3913 95.0569 88.0626ZM11.4866 8.69236C10.3464 8.17594 8.99635 8.6971 8.47998 9.83723C7.9636 10.9774 8.4693 12.3205 9.60952 12.8369C10.7497 13.3533 12.1082 12.8545 12.6246 11.7143C13.1409 10.5742 12.6268 9.20873 11.4866 8.69236ZM97.2367 12.1355C96.435 11.7723 95.4856 12.1388 95.1225 12.9406C94.7594 13.7423 95.115 14.6868 95.9168 15.0499C96.7185 15.413 97.6738 15.0622 98.0369 14.2605C98.4 13.4588 98.0385 12.4986 97.2367 12.1355ZM15.9469 5.34198C15.2212 5.01329 14.3619 5.345 14.0332 6.07067C13.7046 6.79633 14.0264 7.65123 14.7522 7.97991C15.4778 8.30857 16.3425 7.99107 16.6712 7.2654C16.9998 6.53973 16.6726 5.67064 15.9469 5.34198Z" fill="#AEB7BF"/>
<path d="M79.4346 22.2875L86.677 70.2402C87.0519 72.7229 85.3409 75.0341 82.8652 75.408L81.393 75.6303L72.7944 18.6983L74.2666 18.4759C76.7423 18.102 79.0595 19.8045 79.4346 22.2875Z" fill="url(#paint0_linear_3744_5945)"/>
<path d="M72.144 14.3916L82.0435 79.937C82.5059 82.9987 80.398 85.8567 77.3364 86.3191L28.5929 93.681C23.5977 94.4354 18.9429 90.9955 18.1896 86.0076L9.34541 27.4497C8.59207 22.4618 12.0234 17.8006 17.0186 17.0461L65.762 9.68427C68.8236 9.22188 71.6816 11.3299 72.144 14.3916Z" fill="url(#paint1_linear_3744_5945)"/>
<path d="M66.1277 39.4601C66.6067 42.6316 65.9934 45.7131 64.5676 48.3258C62.518 52.0665 58.8097 54.844 54.2686 55.5299C49.7275 56.2157 45.3644 54.6573 42.3015 51.6887C40.1751 49.6125 38.679 46.8496 38.2 43.6781C37.0351 35.9654 42.3381 28.7667 50.0506 27.6019C57.7632 26.437 64.9628 31.7474 66.1277 39.4601Z" fill="url(#paint2_linear_3744_5945)"/>
<path d="M57.7407 39.2629C57.9394 40.5787 57.685 41.8571 57.0935 42.941C56.2432 44.4929 54.7047 45.6452 52.8208 45.9297C50.9368 46.2143 49.1267 45.5677 47.856 44.3362C46.9738 43.4748 46.3532 42.3286 46.1545 41.0128C45.6712 37.8131 47.8712 34.8266 51.0709 34.3434C54.2705 33.8601 57.2574 36.0632 57.7407 39.2629Z" fill="url(#paint3_linear_3744_5945)"/>
<path d="M64.5675 48.3258C62.518 52.0665 58.8097 54.844 54.2686 55.5299C49.7275 56.2157 45.3644 54.6573 42.3015 51.6887C44.3426 47.9417 48.0498 45.157 52.5982 44.47C57.1466 43.7831 61.5109 45.3487 64.5675 48.3258Z" fill="url(#paint4_linear_3744_5945)"/>
<path d="M71.0175 62.312C71.1305 63.0603 70.6155 63.7586 69.8672 63.8716L41.8368 68.1051C41.0885 68.2181 40.3903 67.7031 40.2773 66.9548C40.1643 66.2065 40.6792 65.5083 41.4275 65.3953L69.458 61.1618C70.2063 61.0488 70.9045 61.5638 71.0175 62.312ZM71.9423 68.4351C72.0553 69.1834 71.5403 69.8816 70.792 69.9946L42.7616 74.2281C42.0133 74.3411 41.3151 73.8262 41.2021 73.0779C41.089 72.3296 41.604 71.6314 42.3523 71.5183L70.3828 67.2848C71.131 67.1718 71.8293 67.6868 71.9423 68.4351Z" fill="#AAB2C5"/>
<path d="M68.9744 17.9194C68.9744 23.0404 73.1208 27.1868 78.2417 27.1868C83.3627 27.1868 87.5151 23.0404 87.5151 17.9194C87.5151 12.7985 83.3627 8.64603 78.2417 8.64603C73.1208 8.64603 68.9744 12.7985 68.9744 17.9194Z" fill="#F9FAFD"/>
<path d="M81.8693 17.9393C81.8515 18.4901 81.4262 18.9306 80.8692 18.9306H78.9216V20.8779C78.9216 21.4314 78.4741 21.87 77.9302 21.87C77.3775 21.87 76.9389 21.4314 76.9389 20.8779V18.9306H74.9912C74.4385 18.9306 73.9912 18.4919 73.9999 17.9393C73.9999 17.3867 74.4385 16.9395 74.9825 16.9395H76.9389V15.0007C76.9389 14.4481 77.3775 14 77.9302 14C78.4557 14 78.9216 14.4149 78.9216 15.0007V16.9481L80.8692 16.9395C81.4219 16.9395 81.8693 17.3867 81.8693 17.9393Z" fill="#AEB7BF"/>
<defs>
<linearGradient id="paint0_linear_3744_5945" x1="77.0652" y1="47.1527" x2="83.0272" y2="46.2522" gradientUnits="userSpaceOnUse">
<stop stop-color="#D6DCE8"/>
<stop offset="1" stop-color="white"/>
</linearGradient>
<linearGradient id="paint1_linear_3744_5945" x1="13.7391" y1="56.7174" x2="77.0653" y2="47.1527" gradientUnits="userSpaceOnUse">
<stop stop-color="#D6DCE8"/>
<stop offset="1" stop-color="white"/>
</linearGradient>
<linearGradient id="paint2_linear_3744_5945" x1="38.1708" y1="43.663" x2="66.0985" y2="39.4448" gradientUnits="userSpaceOnUse">
<stop stop-color="#989FB0"/>
<stop offset="1" stop-color="#AAB2C5"/>
</linearGradient>
<linearGradient id="paint3_linear_3744_5945" x1="46.1259" y1="40.9998" x2="57.7115" y2="39.2499" gradientUnits="userSpaceOnUse">
<stop stop-color="#D6DCE8"/>
<stop offset="1" stop-color="white"/>
</linearGradient>
<linearGradient id="paint4_linear_3744_5945" x1="42.2718" y1="51.6699" x2="64.5378" y2="48.3069" gradientUnits="userSpaceOnUse">
<stop stop-color="#D6DCE8"/>
<stop offset="1" stop-color="white"/>
</linearGradient>
</defs>
</svg>
