<svg xmlns="http://www.w3.org/2000/svg" width="20" height="20" viewBox="0 0 20 20" fill="none">
<path d="M3.74998 1.25C3.08694 1.25 2.45106 1.51339 1.98223 1.98223C1.51339 2.45106 1.25 3.08694 1.25 3.74998V16.2499C1.25 16.9129 1.51339 17.5488 1.98223 18.0176C2.45106 18.4865 3.08694 18.7499 3.74998 18.7499H16.2499C16.9129 18.7499 17.5488 18.4865 18.0176 18.0176C18.4865 17.5488 18.7499 16.9129 18.7499 16.2499V3.74998C18.7499 3.08694 18.4865 2.45106 18.0176 1.98223C17.5488 1.51339 16.9129 1.25 16.2499 1.25H3.74998ZM8.64244 4.99997H10.8149L10.6249 12.0024H8.83744L8.64244 4.99997ZM10.9037 13.9549C10.8998 14.2647 10.775 14.5606 10.556 14.7797C10.3369 14.9987 10.0409 15.1235 9.73118 15.1274C9.57474 15.1325 9.41886 15.1061 9.27281 15.0498C9.12677 14.9935 8.99355 14.9083 8.88106 14.7995C8.76858 14.6906 8.67914 14.5602 8.61806 14.4161C8.55697 14.272 8.5255 14.1171 8.5255 13.9605C8.5255 13.804 8.55697 13.6491 8.61806 13.5049C8.67914 13.3608 8.76858 13.2304 8.88106 13.1216C8.99355 13.0127 9.12677 12.9276 9.27281 12.8713C9.41886 12.8149 9.57474 12.7885 9.73118 12.7937C10.3562 12.7937 10.8987 13.3149 10.9037 13.9549Z" fill="white"/>
</svg>