<svg width="102" height="65" viewBox="0 0 102 65" fill="none" xmlns="http://www.w3.org/2000/svg">
<path d="M91.4136 43.9736C85.0359 48.9656 67.1929 47.8788 48.0228 40.8237C28.8158 33.7686 14.5304 23.0478 12.9083 15.1269C13.6271 14.5559 14.5119 14.0585 15.5073 13.6533C23.3597 10.4665 39.2856 12.0138 56.2991 18.2584C73.3126 24.503 86.4368 33.6396 90.3445 41.1553C90.8422 42.1315 91.1924 43.071 91.3768 43.9736H91.4136Z" fill="#757D87"/>
<path d="M52.0375 23.3071L46.3377 23.6416C51.0363 32.6594 51.7803 37.435 51.565 38.6957L58.3396 39.5338C57.5945 29.4605 53.8801 24.1787 52.0375 23.3071Z" fill="#FFF7F3"/>
<path d="M47.2216 18.3246L42.8206 18.8198C45.9272 27.6406 46.2312 32.3618 45.995 33.6199L51.1564 34.2584C51.1488 24.2763 48.5893 19.1374 47.2216 18.3246Z" fill="#FFF7F3"/>
<path d="M60.2995 7.44527C34.1618 -2.15188 9.86732 -1.4519 6.01486 9.01102C5.20382 11.2215 5.36972 13.6714 6.38352 16.2872C7.36046 18.8292 9.14844 21.5002 11.6369 24.208C18.6413 31.8526 31.1388 39.7182 46.3643 45.2996C61.5898 50.8995 76.1886 52.9995 86.4741 51.71C90.1238 51.2495 93.2205 50.3653 95.6168 49.0575C98.0684 47.7312 99.801 45.9444 100.612 43.7523C104.465 33.2894 86.4004 17.024 60.2811 7.42685L60.2995 7.44527ZM92.1883 43.255C91.9671 43.4944 91.709 43.7339 91.4325 43.9549C85.0548 48.9469 67.2118 47.8601 48.0417 40.805C28.8163 33.7683 14.5308 23.0475 12.9087 15.1267C12.835 14.7767 12.7797 14.4267 12.7613 14.0951C12.706 13.2293 12.7981 12.4004 13.0931 11.6267C16.0239 3.65062 36.4106 3.79798 58.6221 11.9583C80.8152 20.1187 96.4463 33.1973 93.5154 41.1734C93.2205 41.9655 92.7781 42.6655 92.1699 43.2734L92.1883 43.255Z" fill="#AEB7BF"/>
<path d="M100.612 43.7709L95.9852 56.3522C92.1328 66.8151 67.8383 67.5151 41.719 57.918C15.5997 48.3208 -2.46445 32.0554 1.38801 21.5925L6.01465 9.01123C5.2036 11.2217 5.3695 13.6716 6.3833 16.2874C7.36024 18.8294 9.14823 21.5004 11.6367 24.2082C18.6411 31.8528 31.1386 39.7184 46.3641 45.2999C61.5896 50.8997 76.1884 52.9997 86.4739 51.7102C90.1236 51.2497 93.2203 50.3655 95.6166 49.0577C98.0681 47.7314 99.8008 45.9446 100.612 43.7525V43.7709Z" fill="#2C3137"/>
<path d="M93.5343 41.174C93.2393 41.9661 92.797 42.6661 92.1887 43.2739C91.9675 43.5134 91.7094 43.7529 91.4329 43.9739C91.2486 43.0713 90.8984 42.1319 90.4007 41.1556C86.4929 33.64 73.3503 24.5033 56.3553 18.2587C39.3602 12.0141 23.379 10.4484 15.5266 13.6352C14.5128 14.0404 13.6464 14.5378 12.9276 15.1088C12.8538 14.7588 12.7985 14.4088 12.7801 14.0773C12.7248 13.2115 12.817 12.3826 13.1119 11.6089C16.0427 3.63276 36.4294 3.78013 58.6409 11.9405C80.8341 20.1008 96.4651 33.1794 93.5343 41.1556V41.174Z" fill="#2C3137"/>
</svg>
