<svg width="20" height="20" viewBox="0 0 20 20" fill="none" xmlns="http://www.w3.org/2000/svg">
<path d="M5.91125 11.3575C6.06353 10.9581 6.33358 10.6144 6.68562 10.372C7.03766 10.1296 7.45506 9.99983 7.8825 10C8.09875 10 8.30875 10.0663 8.48625 10.19L9.28375 10.7487C9.49374 10.8956 9.74378 10.9743 10 10.9743C10.2562 10.9743 10.5063 10.8956 10.7162 10.7487L11.5138 10.19C11.6913 10.0663 11.9012 10 12.1175 10C12.9925 10 13.7775 10.54 14.0887 11.3575L14.3538 12.055C14.4258 12.2441 14.4508 12.4479 14.4268 12.6488C14.4027 12.8498 14.3301 13.0418 14.2154 13.2085C14.1007 13.3753 13.9472 13.5116 13.7682 13.606C13.5891 13.7003 13.3899 13.7497 13.1875 13.75H6.8125C6.61002 13.7499 6.4106 13.7006 6.23139 13.6064C6.05217 13.5122 5.89853 13.3758 5.78368 13.2091C5.66882 13.0423 5.59619 12.8502 5.57204 12.6491C5.54788 12.4481 5.57292 12.2442 5.645 12.055L5.91125 11.3575ZM11.25 6.875C11.25 7.91 10.69 8.75 10 8.75C9.31 8.75 8.75 7.91 8.75 6.875C8.75 5.84 9.31 5 10 5C10.69 5 11.25 5.84 11.25 6.875ZM6.875 1.25C7.04076 1.25 7.19973 1.31585 7.31694 1.43306C7.43415 1.55027 7.5 1.70924 7.5 1.875C7.5 2.04076 7.43415 2.19973 7.31694 2.31694C7.19973 2.43415 7.04076 2.5 6.875 2.5H4.375C3.87772 2.5 3.40081 2.69754 3.04917 3.04917C2.69754 3.40081 2.5 3.87772 2.5 4.375V6.875C2.5 7.04076 2.43415 7.19973 2.31694 7.31694C2.19973 7.43415 2.04076 7.5 1.875 7.5C1.70924 7.5 1.55027 7.43415 1.43306 7.31694C1.31585 7.19973 1.25 7.04076 1.25 6.875V4.375C1.25 3.5462 1.57924 2.75134 2.16529 2.16529C2.75134 1.57924 3.5462 1.25 4.375 1.25H6.875ZM13.125 1.25C12.9592 1.25 12.8003 1.31585 12.6831 1.43306C12.5658 1.55027 12.5 1.70924 12.5 1.875C12.5 2.04076 12.5658 2.19973 12.6831 2.31694C12.8003 2.43415 12.9592 2.5 13.125 2.5H15.625C16.1223 2.5 16.5992 2.69754 16.9508 3.04917C17.3025 3.40081 17.5 3.87772 17.5 4.375V6.875C17.5 7.04076 17.5658 7.19973 17.6831 7.31694C17.8003 7.43415 17.9592 7.5 18.125 7.5C18.2908 7.5 18.4497 7.43415 18.5669 7.31694C18.6842 7.19973 18.75 7.04076 18.75 6.875V4.375C18.75 3.5462 18.4208 2.75134 17.8347 2.16529C17.2487 1.57924 16.4538 1.25 15.625 1.25H13.125ZM4.375 17.5H6.875C7.04076 17.5 7.19973 17.5658 7.31694 17.6831C7.43415 17.8003 7.5 17.9592 7.5 18.125C7.5 18.2908 7.43415 18.4497 7.31694 18.5669C7.19973 18.6842 7.04076 18.75 6.875 18.75H4.375C3.5462 18.75 2.75134 18.4208 2.16529 17.8347C1.57924 17.2487 1.25 16.4538 1.25 15.625V13.125C1.25 12.9592 1.31585 12.8003 1.43306 12.6831C1.55027 12.5658 1.70924 12.5 1.875 12.5C2.04076 12.5 2.19973 12.5658 2.31694 12.6831C2.43415 12.8003 2.5 12.9592 2.5 13.125V15.625C2.5 16.1223 2.69754 16.5992 3.04917 16.9508C3.40081 17.3025 3.87772 17.5 4.375 17.5ZM13.125 18.75C12.9592 18.75 12.8003 18.6842 12.6831 18.5669C12.5658 18.4497 12.5 18.2908 12.5 18.125C12.5 17.9592 12.5658 17.8003 12.6831 17.6831C12.8003 17.5658 12.9592 17.5 13.125 17.5H15.625C16.1223 17.5 16.5992 17.3025 16.9508 16.9508C17.3025 16.5992 17.5 16.1223 17.5 15.625V13.125C17.5 12.9592 17.5658 12.8003 17.6831 12.6831C17.8003 12.5658 17.9592 12.5 18.125 12.5C18.2908 12.5 18.4497 12.5658 18.5669 12.6831C18.6842 12.8003 18.75 12.9592 18.75 13.125V15.625C18.75 16.4538 18.4208 17.2487 17.8347 17.8347C17.2487 18.4208 16.4538 18.75 15.625 18.75H13.125Z" fill="#2C3137"/>
</svg>
