<svg xmlns="http://www.w3.org/2000/svg" width="33" height="32" viewBox="0 0 33 32" fill="none">
<path d="M9.958 18.172C10.2016 17.533 10.6337 16.9831 11.197 16.5952C11.7603 16.2073 12.4281 15.9997 13.112 16C13.458 16 13.794 16.106 14.078 16.304L15.354 17.198C15.69 17.4329 16.09 17.5589 16.5 17.5589C16.91 17.5589 17.31 17.4329 17.646 17.198L18.922 16.304C19.206 16.106 19.542 16 19.888 16C21.288 16 22.544 16.864 23.042 18.172L23.466 19.288C23.5813 19.5906 23.6214 19.9166 23.5828 20.2381C23.5443 20.5596 23.4282 20.8669 23.2447 21.1337C23.0611 21.4004 22.8156 21.6186 22.5291 21.7695C22.2426 21.9204 21.9238 21.9995 21.6 22H11.4C11.076 21.9998 10.757 21.921 10.4702 21.7702C10.1835 21.6195 9.93765 21.4013 9.75388 21.1345C9.57011 20.8677 9.45391 20.5603 9.41526 20.2386C9.37661 19.917 9.41667 19.5907 9.532 19.288L9.958 18.172ZM18.5 11C18.5 12.656 17.604 14 16.5 14C15.396 14 14.5 12.656 14.5 11C14.5 9.344 15.396 8 16.5 8C17.604 8 18.5 9.344 18.5 11ZM11.5 2C11.7652 2 12.0196 2.10536 12.2071 2.29289C12.3946 2.48043 12.5 2.73478 12.5 3C12.5 3.26522 12.3946 3.51957 12.2071 3.70711C12.0196 3.89464 11.7652 4 11.5 4H7.5C6.70435 4 5.94129 4.31607 5.37868 4.87868C4.81607 5.44129 4.5 6.20435 4.5 7V11C4.5 11.2652 4.39464 11.5196 4.20711 11.7071C4.01957 11.8946 3.76522 12 3.5 12C3.23478 12 2.98043 11.8946 2.79289 11.7071C2.60536 11.5196 2.5 11.2652 2.5 11V7C2.5 5.67392 3.02678 4.40215 3.96447 3.46447C4.90215 2.52678 6.17392 2 7.5 2H11.5ZM21.5 2C21.2348 2 20.9804 2.10536 20.7929 2.29289C20.6054 2.48043 20.5 2.73478 20.5 3C20.5 3.26522 20.6054 3.51957 20.7929 3.70711C20.9804 3.89464 21.2348 4 21.5 4H25.5C26.2956 4 27.0587 4.31607 27.6213 4.87868C28.1839 5.44129 28.5 6.20435 28.5 7V11C28.5 11.2652 28.6054 11.5196 28.7929 11.7071C28.9804 11.8946 29.2348 12 29.5 12C29.7652 12 30.0196 11.8946 30.2071 11.7071C30.3946 11.5196 30.5 11.2652 30.5 11V7C30.5 5.67392 29.9732 4.40215 29.0355 3.46447C28.0979 2.52678 26.8261 2 25.5 2H21.5ZM7.5 28H11.5C11.7652 28 12.0196 28.1054 12.2071 28.2929C12.3946 28.4804 12.5 28.7348 12.5 29C12.5 29.2652 12.3946 29.5196 12.2071 29.7071C12.0196 29.8946 11.7652 30 11.5 30H7.5C6.17392 30 4.90215 29.4732 3.96447 28.5355C3.02678 27.5979 2.5 26.3261 2.5 25V21C2.5 20.7348 2.60536 20.4804 2.79289 20.2929C2.98043 20.1054 3.23478 20 3.5 20C3.76522 20 4.01957 20.1054 4.20711 20.2929C4.39464 20.4804 4.5 20.7348 4.5 21V25C4.5 25.7956 4.81607 26.5587 5.37868 27.1213C5.94129 27.6839 6.70435 28 7.5 28ZM21.5 30C21.2348 30 20.9804 29.8946 20.7929 29.7071C20.6054 29.5196 20.5 29.2652 20.5 29C20.5 28.7348 20.6054 28.4804 20.7929 28.2929C20.9804 28.1054 21.2348 28 21.5 28H25.5C26.2956 28 27.0587 27.6839 27.6213 27.1213C28.1839 26.5587 28.5 25.7956 28.5 25V21C28.5 20.7348 28.6054 20.4804 28.7929 20.2929C28.9804 20.1054 29.2348 20 29.5 20C29.7652 20 30.0196 20.1054 30.2071 20.2929C30.3946 20.4804 30.5 20.7348 30.5 21V25C30.5 26.3261 29.9732 27.5979 29.0355 28.5355C28.0979 29.4732 26.8261 30 25.5 30H21.5Z" fill="#2C3137"/>
</svg>