<svg xmlns="http://www.w3.org/2000/svg" width="16" height="17" viewBox="0 0 16 17" fill="none">
  <path fill-rule="evenodd" clip-rule="evenodd" d="M8 15.5C11.866 15.5 15 12.366 15 8.5C15 4.63401 11.866 1.5 8 1.5C4.13401 1.5 1 4.63401 1 8.5C1 12.366 4.13401 15.5 8 15.5ZM6.72727 3.5C6.63747 3.5 6.54882 3.51945 6.46786 3.55691L5.04969 4.21305C4.90549 4.27976 4.79487 4.39926 4.74236 4.545L4.03328 6.51344C3.95627 6.72723 4.01543 6.96472 4.18473 7.12138L5.6029 8.43365C5.71461 8.53703 5.8634 8.59474 6.01818 8.59474H7.19516L8.25453 9.575V13.921C8.25453 14.153 8.39801 14.3626 8.61912 14.4536C8.84024 14.5446 9.0963 14.4994 9.2698 14.3389L9.97889 13.6828C10.0385 13.6277 10.0856 13.5613 10.1174 13.4878L10.8858 11.7102L11.973 11.1513C12.1363 11.0674 12.2503 10.9154 12.282 10.7395L12.9911 6.80265C13.0416 6.52225 12.8734 6.24802 12.5944 6.1558L10.7808 5.55646L9.33113 3.72727C9.21761 3.58402 9.0414 3.5 8.85452 3.5H6.72727Z" fill="white"/>
</svg>