<svg width="16" height="19" viewBox="0 0 16 19" fill="none" xmlns="http://www.w3.org/2000/svg">
<path d="M15.2598 12.4423C14.4874 8.58995 11.784 4.73759 9.85294 3.58189L11.784 0.5C15.8005 4.50645 15.7747 10.1309 15.2598 12.4423Z" fill="white"/>
<path fill-rule="evenodd" clip-rule="evenodd" d="M5.98231 3.09615L0.5 11.1832C3.6327 11.6966 10.6815 13.8788 13.8142 18.5C14.8586 14.9058 14.7541 6.79307 5.98231 3.09615ZM7.47059 11.4038C8.88373 11.4038 10.0294 10.2803 10.0294 8.89423C10.0294 7.50821 8.88373 6.38462 7.47059 6.38462C6.05745 6.38462 4.91176 7.50821 4.91176 8.89423C4.91176 10.2803 6.05745 11.4038 7.47059 11.4038Z" fill="white"/>
</svg>
