<svg width="101" height="100" viewBox="0 0 101 100" fill="none" xmlns="http://www.w3.org/2000/svg">
<g id="no-file-search">
<g id="No_File_Search">
<path id="Vector" d="M50.5001 97.4059C76.6824 97.4059 97.9075 76.1809 97.9075 49.9985C97.9075 23.8161 76.6824 2.59111 50.5001 2.59111C24.3177 2.59111 3.09265 23.8161 3.09265 49.9985C3.09265 76.1809 24.3177 97.4059 50.5001 97.4059Z" fill="#AEB7BF"/>
<path id="Vector_2" d="M84.7466 28.424V86.7455C84.7466 90.3027 81.8685 93.1808 78.3113 93.1808H26.1774C22.6201 93.1808 19.7421 90.3027 19.7421 86.7455V13.5427C19.7421 9.98545 22.6201 7.10735 26.1774 7.10735H62.0985C62.4348 7.10735 62.7643 7.13427 63.087 7.18135C64.331 7.37635 65.5011 7.93449 66.4425 8.80193L82.662 23.6832C83.6303 24.5709 84.296 25.7275 84.5785 26.9849C84.6928 27.4557 84.7466 27.9331 84.7466 28.424Z" fill="#F1F3F9"/>
<path id="Vector_3" d="M54.986 15.7385H28.7341V17.8585H54.986V15.7385Z" fill="#AEB7BF"/>
<path id="Vector_4" d="M42.3652 20.9311H28.7341V23.0511H42.3652V20.9311Z" fill="#AEB7BF"/>
<path id="Vector_5" d="M84.5785 26.9849H66.2025C64.4819 26.9849 63.087 25.5901 63.087 23.8695V7.18135C64.331 7.37635 65.5011 7.93449 66.4425 8.80193L82.662 23.6832C83.6303 24.5709 84.296 25.7274 84.5785 26.9849Z" fill="url(#paint0_linear_3172_13466)"/>
<path id="Vector_6" d="M95.4125 94.6502C93.6487 96.6693 90.5803 96.8483 88.5789 95.0805L76.5362 84.4194C76.1922 84.1173 75.995 83.711 75.9675 83.2617C75.9313 82.8054 76.0807 82.3755 76.3838 82.0393L76.3976 82.0218L68.6429 75.1543L69.2901 74.5645C71.0462 72.948 72.0591 71.4387 72.79 70.4498L80.5368 77.3182L80.5508 77.3008C81.1697 76.603 82.2339 76.5371 82.9309 77.1483L94.9822 87.8164C96.9735 89.5752 97.2051 92.6207 95.4125 94.6502Z" fill="url(#paint1_linear_3172_13466)"/>
<path id="Vector_7" d="M69.8412 39.0395C59.5967 30.031 43.9288 31.0327 34.9037 41.2713C25.8581 51.5511 26.8816 67.165 37.1259 76.1941C46.7325 84.6599 61.0104 84.4652 70.3754 75.7267C81.6081 64.9812 80.361 48.2946 69.8412 39.0395ZM42.1228 70.5194C35.0098 64.2576 34.3157 53.3734 40.5785 46.2683C46.8395 39.1456 57.7124 38.4311 64.8365 44.7151C71.9703 50.9988 72.6446 61.8801 66.3827 68.9819C60.0568 76.1715 49.1841 76.7481 42.1228 70.5194Z" fill="url(#paint2_linear_3172_13466)"/>
<g id="Group">
<path id="Vector_8" d="M53.2808 68.34C59.0336 68.34 63.6971 63.6765 63.6971 57.9237C63.6971 52.1709 59.0336 47.5074 53.2808 47.5074C47.528 47.5074 42.8645 52.1709 42.8645 57.9237C42.8645 63.6765 47.528 68.34 53.2808 68.34Z" fill="url(#paint3_linear_3172_13466)"/>
<path id="Vector_9" d="M57.7174 62.3584C57.1804 62.8954 56.3329 62.8546 55.8456 62.3584L53.283 59.7958L50.7158 62.3584C50.1977 62.8765 49.3621 62.8765 48.844 62.3584C48.3241 61.8385 48.3313 60.9994 48.844 60.4867L51.4066 57.9241L48.844 55.3615C48.3259 54.8434 48.3259 54.0032 48.844 53.4897C49.3299 52.995 50.1774 52.9514 50.7158 53.4897L53.283 56.0523L55.8456 53.4897C56.3637 52.9716 57.1992 52.9716 57.7174 53.4897C58.2371 54.0002 58.231 54.857 57.7174 55.3615L55.1548 57.9241L57.7174 60.4867C58.2355 61.0048 58.2355 61.845 57.7174 62.3584Z" fill="white"/>
</g>
</g>
</g>
<defs>
<linearGradient id="paint0_linear_3172_13466" x1="63.0868" y1="17.083" x2="84.5786" y2="17.083" gradientUnits="userSpaceOnUse">
<stop stop-color="#D6DCE8"/>
<stop offset="1" stop-color="white"/>
</linearGradient>
<linearGradient id="paint1_linear_3172_13466" x1="68.6431" y1="83.3718" x2="96.6275" y2="83.3718" gradientUnits="userSpaceOnUse">
<stop stop-color="#AAB2C5"/>
<stop offset="1" stop-color="#D6DCE8"/>
</linearGradient>
<linearGradient id="paint2_linear_3172_13466" x1="28.7297" y1="57.6504" x2="78.2793" y2="57.6504" gradientUnits="userSpaceOnUse">
<stop stop-color="#AAB2C5"/>
<stop offset="1" stop-color="#D6DCE8"/>
</linearGradient>
<linearGradient id="paint3_linear_3172_13466" x1="42.8645" y1="57.9244" x2="63.6971" y2="57.9244" gradientUnits="userSpaceOnUse">
<stop stop-color="#989FB0"/>
<stop offset="1" stop-color="#AAB2C5"/>
</linearGradient>
</defs>
</svg>
