<svg xmlns="http://www.w3.org/2000/svg" width="16" height="17" viewBox="0 0 16 17" fill="none">
  <path d="M6 13.5H10C10.0023 14.019 9.80281 14.5185 9.44362 14.8932C9.08443 15.2678 8.59368 15.4881 8.07506 15.5075C7.55644 15.527 7.05055 15.3441 6.66428 14.9975C6.27801 14.6509 6.0416 14.1677 6.005 13.65L6 13.5ZM8 1.5C9.06087 1.5 10.0783 1.92143 10.8284 2.67157C11.5786 3.42172 12 4.43913 12 5.5V8.53L13.684 10.108C13.7838 10.2016 13.8634 10.3147 13.9177 10.4402C13.9721 10.5658 14.0001 10.7012 14 10.838V11.5C14 11.7652 13.8946 12.0196 13.7071 12.2071C13.5196 12.3946 13.2652 12.5 13 12.5H3C2.73478 12.5 2.48043 12.3946 2.29289 12.2071C2.10536 12.0196 2 11.7652 2 11.5V10.838C1.99993 10.7012 2.02794 10.5658 2.08229 10.4402C2.13665 10.3147 2.21619 10.2016 2.316 10.108L4 8.53V5.5C4 4.43913 4.42143 3.42172 5.17157 2.67157C5.92172 1.92143 6.93913 1.5 8 1.5Z" fill="white"/>
</svg>