<svg width="32" height="32" viewBox="0 0 32 32" fill="none" xmlns="http://www.w3.org/2000/svg">
<rect width="32" height="32" rx="16" fill="#F5F7F8"/>
<g clip-path="url(#clip0_4748_125)">
<path d="M16 9.6962C14.328 9.6962 12.7246 10.3604 11.5424 11.5426C10.3601 12.7248 9.69596 14.3283 9.69596 16.0002C9.69596 17.6721 10.3601 19.2756 11.5424 20.4578C12.7246 21.64 14.328 22.3042 16 22.3042C17.6719 22.3042 19.2753 21.64 20.4576 20.4578C21.6398 19.2756 22.304 17.6721 22.304 16.0002C22.304 14.3283 21.6398 12.7248 20.4576 11.5426C19.2753 10.3604 17.6719 9.6962 16 9.6962ZM8.30396 16.0002C8.30396 13.9591 9.11478 12.0016 10.5581 10.5583C12.0013 9.11503 13.9588 8.3042 16 8.3042C18.0411 8.3042 19.9986 9.11503 21.4418 10.5583C22.8851 12.0016 23.696 13.9591 23.696 16.0002C23.696 18.0413 22.8851 19.9988 21.4418 21.4421C19.9986 22.8854 18.0411 23.6962 16 23.6962C13.9588 23.6962 12.0013 22.8854 10.5581 21.4421C9.11478 19.9988 8.30396 18.0413 8.30396 16.0002Z" fill="#757D87"/>
<path d="M16.08 12.9662C15.9199 12.9552 15.7593 12.9773 15.6081 13.031C15.457 13.0848 15.3184 13.169 15.2012 13.2786C15.084 13.3881 14.9905 13.5206 14.9267 13.6678C14.8628 13.815 14.8299 13.9738 14.83 14.1342C14.83 14.3189 14.7566 14.4961 14.626 14.6267C14.4954 14.7573 14.3182 14.8307 14.1335 14.8307C13.9488 14.8307 13.7716 14.7573 13.641 14.6267C13.5104 14.4961 13.437 14.3189 13.437 14.1342C13.4369 13.6643 13.566 13.2034 13.8102 12.8019C14.0544 12.4004 14.4042 12.0737 14.8215 11.8577C15.2388 11.6416 15.7075 11.5444 16.1763 11.5767C16.6451 11.6091 17.096 11.7696 17.4797 12.0409C17.8634 12.3122 18.1651 12.6838 18.3519 13.115C18.5386 13.5462 18.6033 14.0205 18.5387 14.4859C18.4741 14.9514 18.2828 15.3901 17.9857 15.7542C17.6886 16.1182 17.2971 16.3936 16.854 16.5502C16.8079 16.5667 16.768 16.5972 16.7399 16.6373C16.7118 16.6774 16.6968 16.7252 16.697 16.7742V17.4002C16.697 17.5849 16.6236 17.7621 16.493 17.8927C16.3624 18.0233 16.1852 18.0967 16.0005 18.0967C15.8158 18.0967 15.6386 18.0233 15.508 17.8927C15.3774 17.7621 15.304 17.5849 15.304 17.4002V16.7742C15.3039 16.4372 15.4083 16.1084 15.6028 15.8331C15.7973 15.5579 16.0723 15.3497 16.39 15.2372C16.6435 15.1474 16.8584 14.9729 16.9983 14.7432C17.1383 14.5135 17.1948 14.2426 17.1584 13.9761C17.122 13.7096 16.9949 13.4638 16.7985 13.28C16.6021 13.0963 16.3483 12.9848 16.08 12.9662Z" fill="#757D87"/>
<path d="M16.05 19.5712C16.0026 19.5712 15.957 19.5901 15.9235 19.6236C15.8899 19.6572 15.871 19.7027 15.871 19.7502C15.871 19.7977 15.8899 19.8432 15.9235 19.8768C15.957 19.9103 16.0026 19.9292 16.05 19.9292C16.0975 19.9292 16.1431 19.9103 16.1766 19.8768C16.2102 19.8432 16.229 19.7977 16.229 19.7502C16.229 19.7027 16.2102 19.6572 16.1766 19.6236C16.1431 19.5901 16.0975 19.5712 16.05 19.5712ZM16.05 20.5002C16.1485 20.5002 16.2461 20.4808 16.3371 20.4431C16.4281 20.4054 16.5107 20.3502 16.5804 20.2805C16.65 20.2109 16.7053 20.1282 16.743 20.0372C16.7806 19.9462 16.8 19.8487 16.8 19.7502C16.8 19.6517 16.7806 19.5542 16.743 19.4632C16.7053 19.3722 16.65 19.2895 16.5804 19.2199C16.5107 19.1502 16.4281 19.095 16.3371 19.0573C16.2461 19.0196 16.1485 19.0002 16.05 19.0002C15.8511 19.0002 15.6604 19.0792 15.5197 19.2199C15.3791 19.3605 15.3 19.5513 15.3 19.7502C15.3 19.9491 15.3791 20.1399 15.5197 20.2805C15.6604 20.4212 15.8511 20.5002 16.05 20.5002Z" fill="#757D87"/>
</g>
<defs>
<clipPath id="clip0_4748_125">
<rect width="16" height="16" fill="white" transform="translate(8 8)"/>
</clipPath>
</defs>
</svg>
