<svg width="122" height="78" viewBox="0 0 122 78" fill="none" xmlns="http://www.w3.org/2000/svg">
<path d="M109.754 52.226C102.06 58.2482 80.5349 56.9371 57.4087 48.4261C34.2381 39.9151 17.0047 26.9819 15.0479 17.4264C15.9151 16.7375 16.9824 16.1375 18.1832 15.6487C27.6561 11.8043 46.8685 13.6709 67.393 21.2041C87.9175 28.7374 103.75 39.7595 108.464 48.8261C109.065 50.0038 109.487 51.1371 109.709 52.226H109.754Z" fill="#039AFF"/>
<path d="M62.2507 27.2949L55.3747 27.6984C61.043 38.5772 61.9405 44.3384 61.6807 45.8592L69.8533 46.8703C68.9545 34.7182 64.4735 28.3464 62.2507 27.2949Z" fill="#D8EFFF"/>
<path d="M56.4415 21.2842L51.1323 21.8816C54.88 32.5227 55.2468 38.2183 54.9617 39.7359L61.1883 40.5063C61.1791 28.4642 58.0915 22.2648 56.4415 21.2842Z" fill="#D8EFFF"/>
<path d="M72.2182 8.15939C40.6866 -3.41826 11.3786 -2.57382 6.73117 10.0483C5.75276 12.7149 5.95289 15.6704 7.1759 18.8259C8.35445 21.8926 10.5114 25.1148 13.5134 28.3814C21.9633 37.6035 37.0398 47.0923 55.4073 53.8256C73.7748 60.581 91.3862 63.1143 103.794 61.5588C108.197 61.0033 111.933 59.9366 114.824 58.3588C117.781 56.7589 119.871 54.6033 120.85 51.9589C125.497 39.3368 103.705 19.7148 72.196 8.13717L72.2182 8.15939ZM110.688 51.3589C110.421 51.6478 110.11 51.9367 109.776 52.2034C102.082 58.2255 80.557 56.9144 57.4308 48.4034C34.2379 39.9146 17.0045 26.9814 15.0477 17.426C14.9587 17.0037 14.892 16.5815 14.8698 16.1815C14.8031 15.1371 14.9143 14.1371 15.2701 13.2038C18.8057 3.58167 43.3995 3.75944 70.1947 13.6038C96.9676 23.4481 115.824 39.2257 112.289 48.8478C111.933 49.8034 111.399 50.6478 110.665 51.3811L110.688 51.3589Z" fill="#8BD1FF"/>
<path d="M120.85 51.9817L115.269 67.1593C110.621 79.7814 81.3132 80.6258 49.8038 69.0482C18.2944 57.4705 -3.49753 37.8485 1.14994 25.2264L6.73134 10.0488C5.75293 12.7155 5.95306 15.671 7.17608 18.8265C8.35462 21.8931 10.5116 25.1153 13.5135 28.382C21.9635 37.6041 37.0399 47.0929 55.4074 53.8261C73.7749 60.5816 91.3864 63.1149 103.794 61.5594C108.197 61.0038 111.933 59.9372 114.824 58.3594C117.781 56.7594 119.872 54.6039 120.85 51.9595V51.9817Z" fill="#026DB5"/>
<path d="M112.312 48.8489C111.956 49.8044 111.423 50.6488 110.689 51.3822C110.422 51.671 110.111 51.9599 109.777 52.2266C109.555 51.1377 109.132 50.0044 108.532 48.8266C103.818 39.7601 87.9631 28.738 67.4609 21.2047C46.9586 13.6715 27.6794 11.7826 18.2066 15.627C16.9836 16.1159 15.9385 16.7159 15.0712 17.4048C14.9823 16.9825 14.9156 16.5603 14.8933 16.1603C14.8266 15.1159 14.9378 14.1159 15.2936 13.1826C18.8292 3.56047 43.423 3.73825 70.2182 13.5826C96.9912 23.4269 115.848 39.2045 112.312 48.8266V48.8489Z" fill="#026DB5"/>
</svg>
