<svg xmlns="http://www.w3.org/2000/svg" width="9" height="8" viewBox="0 0 9 8" fill="none">
<path d="M7.03392 4.89936C6.89155 5.03863 6.82656 5.23671 6.8606 5.43169L7.16391 7.1958C7.24748 7.68789 6.7337 8.06238 6.29111 7.83026L4.70646 6.99773C4.53314 6.90488 4.32267 6.90488 4.14626 6.99773L2.5616 7.83026C2.12211 8.06238 1.60524 7.68789 1.6919 7.1958L1.99521 5.43169C2.02926 5.23671 1.96426 5.03863 1.82189 4.89936L0.540546 3.64901C0.184618 3.30238 0.379605 2.69577 0.871715 2.62459L2.64517 2.36771C2.84015 2.33985 3.01038 2.21605 3.09704 2.03964L3.88937 0.433374C4.10912 -0.0122965 4.74669 -0.0122965 4.96644 0.433374L5.75877 2.03964C5.84543 2.21605 6.01566 2.33985 6.21064 2.36771L7.9841 2.62459C8.4762 2.69577 8.67429 3.30238 8.31836 3.64901L7.03702 4.89936H7.03392Z" fill="#2C3137"/>
</svg>