<svg xmlns="http://www.w3.org/2000/svg" width="21" height="22" viewBox="0 0 21 24" fill="#757D87">
<path d="M20.2978 8.32363H0.730062C0.0401855 8.32363 -0.239303 7.43563 0.323212 7.0394L10.1124 0.130015C10.3565 -0.0433384 10.682 -0.0433384 10.9261 0.130015L20.7047 7.04293C21.2672 7.44271 20.9877 8.32717 20.2943 8.32717L20.2978 8.32363Z" />
<path d="M20.2981 19.7583H0.702042C0.311264 19.7583 -0.00552368 20.0751 -0.00552368 20.4659V23.2926C-0.00552368 23.6834 0.311264 24.0002 0.702042 24.0002H20.2981C20.6889 24.0002 21.0056 23.6834 21.0056 23.2926V20.4659C21.0056 20.0751 20.6889 19.7583 20.2981 19.7583Z" />
<path d="M5.56972 9.29639H2.743C2.35222 9.29639 2.03543 9.61317 2.03543 10.004V18.0808C2.03543 18.4716 2.35222 18.7884 2.743 18.7884H5.56972C5.9605 18.7884 6.27729 18.4716 6.27729 18.0808V10.004C6.27729 9.61317 5.9605 9.29639 5.56972 9.29639Z" fill-opacity="0.5"/>
<path d="M11.8922 9.29639H9.06546C8.67468 9.29639 8.35789 9.61317 8.35789 10.004V18.0808C8.35789 18.4716 8.67468 18.7884 9.06546 18.7884H11.8922C12.283 18.7884 12.5998 18.4716 12.5998 18.0808V10.004C12.5998 9.61317 12.283 9.29639 11.8922 9.29639Z"  fill-opacity="0.5"/>
<path d="M18.2142 9.29639H15.3874C14.9967 9.29639 14.6799 9.61317 14.6799 10.004V18.0808C14.6799 18.4716 14.9967 18.7884 15.3874 18.7884H18.2142C18.6049 18.7884 18.9217 18.4716 18.9217 18.0808V10.004C18.9217 9.61317 18.6049 9.29639 18.2142 9.29639Z" fill-opacity="0.5"/>
</svg>