<svg xmlns="http://www.w3.org/2000/svg" width="29" height="24" viewBox="0 0 29 24" fill="">
  <g clip-path="url(#clip0_2349_4723)">
    <path d="M28.436 7.60343C28.436 9.66113 27.6624 11.5244 26.3986 12.8975L26.3702 12.9259L26.2609 13.0434L26.2325 13.0717L16.0534 23.7815C15.7699 24.0772 15.2959 24.0772 15.0164 23.7815L4.83733 13.0677L4.74416 12.9705C5.12087 12.213 5.3477 11.1072 5.78922 10.6657C6.48997 9.96897 8.85956 9.8029 8.85956 8.73354C8.85956 7.66419 6.48997 7.50217 5.78922 6.80142C5.08846 6.10067 4.92239 3.73107 3.85709 3.73107C3.77203 3.73107 3.69101 3.74728 3.6181 3.77563C3.92595 3.2207 4.2986 2.71033 4.73201 2.25261L4.78467 2.1959C6.08491 0.838959 7.87932 0.000488281 9.86815 0.000488281C12.1689 0.000488281 14.2185 1.1306 15.543 2.8926C16.8595 1.1306 18.9131 0.000488281 21.2138 0.000488281C23.2108 0.000488281 25.0173 0.851111 26.3257 2.22831C27.634 3.60551 28.4441 5.50523 28.4441 7.60748L28.436 7.60343Z" fill=""/>
    <path d="M7.14615 8.73355C7.14615 9.4343 5.58668 9.54367 5.12491 10.0054C4.66315 10.4672 4.55783 12.0267 3.85303 12.0267C3.14823 12.0267 3.04291 10.4672 2.58115 10.0054C2.11938 9.54367 0.559906 9.43835 0.559906 8.73355C0.559906 8.02875 2.11938 7.92344 2.58115 7.46167C3.04291 6.9999 3.14823 5.44043 3.85303 5.44043C4.55783 5.44043 4.66315 6.9999 5.12491 7.46167C5.58668 7.92344 7.14615 8.02875 7.14615 8.73355Z" fill=""/>
  </g>
  <defs>
    <clipPath id="clip0_2349_4723">
      <rect width="27.8721" height="23.9997" fill="white" transform="translate(0.563965 0.000488281)"/>
    </clipPath>
  </defs>
</svg>