<svg width="20" height="20" viewBox="0 0 20 20" fill="none" xmlns="http://www.w3.org/2000/svg">
<g id="user-circle">
<g id="Vector">
<path fill-rule="evenodd" clip-rule="evenodd" d="M10 18.75C12.3206 18.75 14.5462 17.8281 16.1872 16.1872C17.8281 14.5462 18.75 12.3206 18.75 10C18.75 7.67936 17.8281 5.45376 16.1872 3.81282C14.5462 2.17187 12.3206 1.25 10 1.25C7.67936 1.25 5.45376 2.17187 3.81282 3.81282C2.17187 5.45376 1.25 7.67936 1.25 10C1.25 12.3206 2.17187 14.5462 3.81282 16.1872C5.45376 17.8281 7.67936 18.75 10 18.75ZM6.40125 13.5987L5.13875 14.8612C4.17723 13.8998 3.52242 12.6748 3.25712 11.3411C2.99183 10.0075 3.12796 8.62516 3.6483 7.3689C4.16864 6.11264 5.04983 5.0389 6.18042 4.28345C7.31102 3.528 8.64024 3.12478 10 3.12478C11.3598 3.12478 12.689 3.528 13.8196 4.28345C14.9502 5.0389 15.8314 6.11264 16.3517 7.3689C16.872 8.62516 17.0082 10.0075 16.7429 11.3411C16.4776 12.6748 15.8228 13.8998 14.8612 14.8612L13.5987 13.5987C13.2505 13.2504 12.8369 12.974 12.3818 12.7855C11.9267 12.5969 11.4389 12.4999 10.9462 12.5H9.05375C8.56112 12.4999 8.07331 12.5969 7.61818 12.7855C7.16306 12.974 6.74954 13.2504 6.40125 13.5987Z" fill="#2C3137"/>
<path d="M10 5C9.33696 5 8.70107 5.26339 8.23223 5.73223C7.76339 6.20107 7.5 6.83696 7.5 7.5V8.125C7.5 8.78804 7.76339 9.42393 8.23223 9.89277C8.70107 10.3616 9.33696 10.625 10 10.625C10.663 10.625 11.2989 10.3616 11.7678 9.89277C12.2366 9.42393 12.5 8.78804 12.5 8.125V7.5C12.5 6.83696 12.2366 6.20107 11.7678 5.73223C11.2989 5.26339 10.663 5 10 5Z" fill="#2C3137"/>
</g>
</g>
</svg>
